<svg width="147" height="147" viewBox="0 0 147 147" fill="none" xmlns="http://www.w3.org/2000/svg">
<circle cx="73.5" cy="73.5" r="73.5" fill="#8ECFCB"/>
<path d="M108.951 96.1184H39.6504C38.0464 96.1167 36.5086 95.4788 35.3744 94.3446C34.2402 93.2104 33.6023 91.6726 33.6006 90.0686V42.2412C33.6023 40.6372 34.2402 39.0994 35.3744 37.9653C36.5086 36.8311 38.0464 36.1931 39.6504 36.1914H108.951C110.555 36.1931 112.093 36.8311 113.227 37.9653C114.361 39.0994 114.999 40.6372 115.001 42.2412V90.0686C114.999 91.6726 114.361 93.2104 113.227 94.3446C112.093 95.4788 110.555 96.1167 108.951 96.1184ZM39.6504 38.6256C38.692 38.6273 37.7734 39.0088 37.0957 39.6865C36.418 40.3642 36.0365 41.2828 36.0348 42.2412V90.0686C36.0365 91.027 36.418 91.9456 37.0957 92.6233C37.7734 93.301 38.692 93.6825 39.6504 93.6842H108.951C109.909 93.6825 110.828 93.301 111.505 92.6233C112.183 91.9456 112.565 91.027 112.566 90.0686V42.2412C112.565 41.2828 112.183 40.3642 111.505 39.6865C110.828 39.0088 109.909 38.6273 108.951 38.6256H39.6504Z" fill="white"/>
<path d="M50.4785 113.598C50.1566 113.598 49.8478 113.47 49.6202 113.243C49.3925 113.015 49.2646 112.706 49.2646 112.384V94.897C49.2871 94.5896 49.4251 94.302 49.6509 94.0922C49.8767 93.8823 50.1735 93.7656 50.4818 93.7656C50.79 93.7656 51.0869 93.8823 51.3126 94.0922C51.5384 94.302 51.6764 94.5896 51.6989 94.897V112.384C51.6971 112.707 51.5678 113.016 51.3391 113.243C51.1105 113.471 50.801 113.598 50.4785 113.598Z" fill="white"/>
<path d="M98.1432 113.598C97.8207 113.598 97.5112 113.471 97.2826 113.243C97.0539 113.016 96.9246 112.707 96.9229 112.384V94.897C96.9453 94.5896 97.0833 94.302 97.3091 94.0922C97.5349 93.8823 97.8317 93.7656 98.14 93.7656C98.4482 93.7656 98.7451 93.8823 98.9708 94.0922C99.1966 94.302 99.3346 94.5896 99.3571 94.897V112.384C99.3571 112.544 99.3257 112.702 99.2647 112.849C99.2037 112.996 99.1142 113.13 99.0015 113.243C98.8888 113.355 98.755 113.445 98.6077 113.506C98.4604 113.567 98.3026 113.598 98.1432 113.598Z" fill="white"/>
<path d="M106.88 113.728H89.4254C89.1018 113.728 88.7914 113.599 88.5625 113.37C88.3336 113.142 88.2051 112.831 88.2051 112.507C88.2051 112.184 88.3336 111.873 88.5625 111.645C88.7914 111.416 89.1018 111.287 89.4254 111.287H106.906C107.23 111.287 107.54 111.416 107.769 111.645C107.998 111.873 108.127 112.184 108.127 112.507C108.127 112.831 107.998 113.142 107.769 113.37C107.54 113.599 107.23 113.728 106.906 113.728H106.88Z" fill="white"/>
<path d="M59.2012 113.728H41.7204C41.3967 113.728 41.0863 113.599 40.8574 113.37C40.6286 113.142 40.5 112.831 40.5 112.507C40.5 112.184 40.6286 111.873 40.8574 111.645C41.0863 111.416 41.3967 111.287 41.7204 111.287H59.2012C59.5249 111.287 59.8353 111.416 60.0641 111.645C60.293 111.873 60.4216 112.184 60.4216 112.507C60.4216 112.831 60.293 113.142 60.0641 113.37C59.8353 113.599 59.5249 113.728 59.2012 113.728Z" fill="white"/>
<path d="M80.4474 68.5221C80.1391 68.5246 79.8416 68.4084 79.6166 68.1976C79.499 68.0891 79.404 67.9585 79.337 67.8132C79.2701 67.6679 79.2325 67.5108 79.2264 67.351C79.2204 67.1911 79.246 67.0316 79.3018 66.8817C79.3577 66.7318 79.4426 66.5944 79.5516 66.4774L90.7231 54.3648C90.9476 54.1525 91.2443 54.0333 91.5532 54.0313C91.8622 54.0292 92.1604 54.1444 92.3877 54.3536C92.6151 54.5629 92.7546 54.8505 92.7782 55.1586C92.8017 55.4667 92.7075 55.7722 92.5146 56.0135L81.3367 68.1327C81.224 68.2562 81.0866 68.3547 80.9334 68.4218C80.7803 68.4889 80.6147 68.5231 80.4474 68.5221Z" fill="white"/>
<path d="M74.9171 69.4565C74.702 69.4581 74.4907 69.3996 74.307 69.2877L66.485 64.7503C66.3465 64.6706 66.2251 64.5644 66.1276 64.4378C66.0301 64.3111 65.9585 64.1665 65.9169 64.0122C65.8753 63.8579 65.8646 63.6969 65.8852 63.5384C65.9058 63.3799 65.9574 63.2271 66.0371 63.0886C66.1169 62.95 66.2231 62.8286 66.3497 62.7311C66.4763 62.6336 66.621 62.562 66.7753 62.5204C66.9296 62.4789 67.0906 62.4681 67.249 62.4887C67.4075 62.5093 67.5604 62.561 67.6989 62.6407L75.5273 67.1845C75.7574 67.32 75.9367 67.5271 76.0377 67.7743C76.1388 68.0214 76.156 68.2948 76.0867 68.5527C76.0175 68.8105 75.8656 69.0385 75.6543 69.2018C75.4431 69.365 75.1841 69.4545 74.9171 69.4565Z" fill="white"/>
<path d="M48.0558 78.1958C47.8136 78.1922 47.5779 78.1166 47.3788 77.9787C47.1796 77.8407 47.0261 77.6465 46.9377 77.421C46.8493 77.1954 46.83 76.9486 46.8823 76.7121C46.9346 76.4755 47.0562 76.2599 47.2314 76.0927L60.48 63.5257C60.7142 63.3027 61.0273 63.1819 61.3505 63.1898C61.6737 63.1977 61.9805 63.3337 62.2035 63.5678C62.4264 63.802 62.5472 64.1151 62.5393 64.4383C62.5314 64.7615 62.3954 65.0683 62.1613 65.2913L48.8932 77.8583C48.6686 78.0754 48.3682 78.1965 48.0558 78.1958Z" fill="white"/>
<path d="M63.9594 66.5268C63.0488 66.5281 62.1584 66.2593 61.4007 65.7544C60.643 65.2494 60.0521 64.5311 59.7028 63.6903C59.3535 62.8494 59.2614 61.9239 59.4382 61.0307C59.6151 60.1375 60.0529 59.3168 60.6963 58.6725C61.3397 58.0283 62.1597 57.5893 63.0526 57.4112C63.9455 57.2331 64.8712 57.3238 65.7126 57.672C66.5539 58.0201 67.2731 58.61 67.7791 59.367C68.2851 60.124 68.5551 61.014 68.5551 61.9245C68.5534 63.1435 68.0689 64.3121 67.2076 65.1747C66.3463 66.0372 65.1783 66.5234 63.9594 66.5268ZM63.9594 59.763C63.53 59.7617 63.1099 59.8879 62.7524 60.1256C62.3949 60.3634 62.116 60.7019 61.9511 61.0983C61.7862 61.4948 61.7427 61.9312 61.8262 62.3524C61.9096 62.7736 62.1162 63.1605 62.4198 63.4641C62.7234 63.7677 63.1103 63.9743 63.5315 64.0578C63.9527 64.1412 64.3891 64.0977 64.7856 63.9328C65.182 63.7679 65.5205 63.489 65.7583 63.1315C65.996 62.774 66.1222 62.3539 66.1209 61.9245C66.1192 61.3518 65.8909 60.803 65.4859 60.398C65.0809 59.993 64.5321 59.7647 63.9594 59.763Z" fill="white"/>
<path d="M77.9623 74.6245C77.0515 74.6258 76.1608 74.3568 75.403 73.8516C74.6451 73.3464 74.0542 72.6276 73.7051 71.7864C73.3559 70.9452 73.2643 70.0193 73.4416 69.1259C73.619 68.2326 74.0575 67.4119 74.7015 66.7679C75.3455 66.1239 76.1662 65.6854 77.0595 65.508C77.9529 65.3307 78.8788 65.4224 79.72 65.7715C80.5612 66.1206 81.2799 66.7115 81.7852 67.4694C82.2904 68.2272 82.5594 69.1179 82.5581 70.0287C82.5564 71.247 82.0716 72.415 81.2101 73.2765C80.3486 74.138 79.1806 74.6228 77.9623 74.6245ZM77.9623 67.8671C77.5348 67.8671 77.1168 67.9939 76.7614 68.2314C76.4059 68.4689 76.1289 68.8065 75.9652 69.2015C75.8016 69.5965 75.7588 70.0311 75.8422 70.4504C75.9256 70.8697 76.1315 71.2549 76.4338 71.5572C76.7361 71.8595 77.1213 72.0653 77.5406 72.1487C77.9599 72.2321 78.3945 72.1893 78.7895 72.0257C79.1845 71.8621 79.5221 71.5851 79.7596 71.2296C79.9971 70.8741 80.1239 70.4562 80.1239 70.0287C80.1222 69.4559 79.8939 68.9071 79.4889 68.5021C79.0839 68.0971 78.535 67.8688 77.9623 67.8671Z" fill="white"/>
<path d="M94.0599 57.1382C93.1491 57.1394 92.2584 56.8704 91.5006 56.3652C90.7428 55.86 90.1519 55.1413 89.8027 54.3001C89.4536 53.4589 89.3619 52.533 89.5393 51.6396C89.7167 50.7462 90.1551 49.9256 90.7992 49.2816C91.4432 48.6375 92.2638 48.1991 93.1572 48.0217C94.0505 47.8443 94.9764 47.936 95.8177 48.2852C96.6589 48.6343 97.3776 49.2252 97.8828 49.983C98.388 50.7409 98.657 51.6316 98.6557 52.5424C98.6523 53.7602 98.167 54.9272 97.3059 55.7883C96.4447 56.6494 95.2778 57.1347 94.0599 57.1382ZM94.0599 50.3743C93.6309 50.373 93.2111 50.4991 92.8537 50.7365C92.4963 50.974 92.2174 51.3121 92.0523 51.7082C91.8872 52.1042 91.8433 52.5403 91.9263 52.9613C92.0092 53.3823 92.2151 53.7693 92.5181 54.0731C92.821 54.377 93.2073 54.5841 93.6281 54.6683C94.0488 54.7525 94.4851 54.7099 94.8816 54.546C95.2782 54.3821 95.6172 54.1042 95.8557 53.7476C96.0942 53.3909 96.2215 52.9714 96.2215 52.5424C96.2198 51.969 95.9917 51.4195 95.5869 51.0135C95.1821 50.6074 94.6333 50.3777 94.0599 50.3743Z" fill="white"/>
<path d="M100.571 85.6752H47.5179C47.196 85.6752 46.8872 85.5473 46.6596 85.3197C46.4319 85.092 46.304 84.7833 46.304 84.4614V47.8054C46.2918 47.6381 46.3142 47.4701 46.3698 47.3118C46.4254 47.1535 46.5131 47.0084 46.6273 46.8856C46.7415 46.7627 46.8799 46.6647 47.0336 46.5977C47.1874 46.5307 47.3534 46.4961 47.5211 46.4961C47.6889 46.4961 47.8548 46.5307 48.0086 46.5977C48.1624 46.6647 48.3007 46.7627 48.4149 46.8856C48.5292 47.0084 48.6168 47.1535 48.6724 47.3118C48.7281 47.4701 48.7505 47.6381 48.7382 47.8054V83.241H100.571C100.738 83.2288 100.906 83.2512 101.064 83.3068C101.223 83.3624 101.368 83.4501 101.491 83.5643C101.613 83.6785 101.711 83.8168 101.778 83.9706C101.845 84.1244 101.88 84.2904 101.88 84.4581C101.88 84.6259 101.845 84.7918 101.778 84.9456C101.711 85.0994 101.613 85.2377 101.491 85.3519C101.368 85.4661 101.223 85.5538 101.064 85.6094C100.906 85.665 100.738 85.6874 100.571 85.6752Z" fill="white"/>
<path d="M51.1265 52.5989C50.9661 52.5994 50.8073 52.5681 50.6591 52.5068C50.5109 52.4455 50.3763 52.3555 50.2632 52.2419L47.5433 49.5221L44.8235 52.2419C44.7106 52.3549 44.5765 52.4445 44.4289 52.5056C44.2813 52.5667 44.1232 52.5982 43.9634 52.5982C43.8037 52.5982 43.6455 52.5667 43.4979 52.5056C43.3504 52.4445 43.2163 52.3549 43.1033 52.2419C42.9904 52.129 42.9008 51.9949 42.8397 51.8473C42.7785 51.6997 42.7471 51.5416 42.7471 51.3818C42.7471 51.2221 42.7785 51.0639 42.8397 50.9164C42.9008 50.7688 42.9904 50.6347 43.1033 50.5218L46.6865 46.9386C46.9151 46.7115 47.2243 46.584 47.5466 46.584C47.8688 46.584 48.178 46.7115 48.4067 46.9386L51.9898 50.5218C52.1584 50.6928 52.2729 50.9097 52.3188 51.1454C52.3646 51.3812 52.3399 51.6252 52.2478 51.847C52.1556 52.0687 52 52.2584 51.8006 52.3921C51.6011 52.5259 51.3666 52.5978 51.1265 52.5989Z" fill="white"/>
<path d="M96.9944 89.2538C96.7542 89.2527 96.5198 89.1808 96.3203 89.047C96.1208 88.9132 95.9653 88.7236 95.8731 88.5018C95.7809 88.2801 95.7563 88.036 95.8021 87.8003C95.848 87.5646 95.9624 87.3476 96.1311 87.1766L98.8509 84.4568L96.1311 81.737C95.9021 81.5071 95.7738 81.1958 95.7744 80.8713C95.775 80.5469 95.9045 80.236 96.1343 80.007C96.3641 79.7781 96.6755 79.6498 96.9999 79.6504C97.3244 79.651 97.6353 79.7805 97.8642 80.0103L101.434 83.574C101.548 83.6868 101.638 83.8208 101.699 83.9684C101.76 84.116 101.792 84.2742 101.792 84.4341C101.792 84.5939 101.76 84.7521 101.699 84.8997C101.638 85.0473 101.548 85.1814 101.434 85.2942L97.8642 88.8968C97.7512 89.0124 97.6157 89.1036 97.4661 89.165C97.3166 89.2264 97.1561 89.2566 96.9944 89.2538Z" fill="white"/>
</svg>
